<svg xmlns="http://www.w3.org/2000/svg" height="25" viewBox="0 -960 960 960" width="25" fill="#e3e3e3"><path d="M192-264q-40 0-68-28t-28-68v-240q0-40 28-68t68-28h506q-18 14-32.5 32T642-624l-25 78 80 31v179q4 23 18 42t34 30H192Zm585-163q0-14 1.5-27t6.5-25q5-11 14-21.5t18-19.5q10-10 21-22t11-28q0-17-12-29.5T804-612q-20 0-32.5 12.5T752-568l-47-21q10-32 37-51.5t62-19.5q41 0 69 24t28 61q0 31-15 49.5T854-490q-6 6-12 13t-9 15q-6 14-4 35h-52Zm1.5 98Q768-340 768-354t10.5-25q10.5-11 25.5-11t25.5 11q10.5 11 10.5 25t-10.5 25Q819-318 804-318t-25.5-11Z"/></svg>