<svg xmlns="http://www.w3.org/2000/svg" height="20px" viewBox="0 -960 960 960" width="20px" fill="#e3e3e3"><path d="M192-264q-40 0-68-28t-28-68v-240q0-40 28-68t68-28h506q-18 14-32.5 32T642-624H192q-10 0-17 7t-7 17v240q0 10 7 17t17 7h505q4 23 18 42t34 30H192Zm637.5-65q10.5-11 10.5-25t-10.5-25Q819-390 804-390t-25.5 11Q768-368 768-354t10.5 25q10.5 11 25.5 11t25.5-11ZM777-427h52v-17.5q0-8.5 4-17.5 3-8 9-15t12-13q17-17 32-35.5t15-49.5q0-37-28-61t-69-24q-35 0-62 19.5T705-589l47 21q7-19 19.5-31.5T804-612q21 0 33 12.5t12 29.5q0 16-11 28t-21 22q-9 9-18 19.5T785-479q-5 12-6.5 25t-1.5 27Zm-562 43v-192h427v192H215Z"/></svg>